<!-- Generated by IcoMoon.io -->
<svg version="1.1" xmlns="http://www.w3.org/2000/svg" width="32" height="32" viewBox="0 0 32 32">
<title>2</title>
<path fill="#829984" d="M2.51 6.3c-0.336 0.066-0.662 0.405-0.766 0.797-0.058 0.22-0.068 17.493-0.010 17.745 0.082 0.355 0.27 0.604 0.574 0.758l0.191 0.097 27.086 0.001 0.145-0.068c0.287-0.135 0.454-0.327 0.601-0.692 0.065-0.161 0.050-17.728-0.015-17.917-0.108-0.314-0.31-0.538-0.618-0.687-0.106-0.051-26.928-0.084-27.188-0.033zM28.376 7.412c0 0.018-0.011 0.033-0.024 0.033s-0.173 0.143-0.355 0.318c-0.182 0.175-0.512 0.487-0.734 0.694-0.387 0.361-1.988 1.866-2.462 2.316-0.455 0.431-0.952 0.901-1.208 1.142-0.144 0.135-0.387 0.364-0.54 0.508s-0.388 0.366-0.522 0.492c-0.228 0.214-0.649 0.612-1.191 1.125-0.126 0.119-0.368 0.348-0.539 0.509s-0.56 0.528-0.865 0.816c-0.305 0.288-0.641 0.604-0.748 0.702s-0.364 0.341-0.571 0.539-0.458 0.434-0.556 0.522c-0.098 0.089-0.348 0.324-0.555 0.522s-0.472 0.448-0.587 0.555c-0.115 0.107-0.268 0.251-0.34 0.32-0.301 0.291-0.682 0.347-0.923 0.135-0.15-0.131-1.357-1.268-1.613-1.518-0.064-0.063-0.197-0.187-0.296-0.275s-0.348-0.324-0.556-0.522c-0.207-0.199-0.464-0.442-0.571-0.54s-0.437-0.408-0.733-0.688c-0.296-0.28-0.95-0.897-1.453-1.37s-1.017-0.958-1.143-1.077c-0.683-0.647-1.274-1.205-1.731-1.634-0.18-0.169-0.429-0.404-0.555-0.523s-0.493-0.465-0.816-0.769c-0.323-0.304-0.977-0.92-1.453-1.37s-0.909-0.857-0.963-0.906l-0.098-0.088h12.351c8.212 0 12.351 0.011 12.351 0.033zM3.298 8.542c0.637 0.601 1.575 1.485 2.89 2.722 0.79 0.744 1.554 1.464 1.698 1.602s0.408 0.388 0.588 0.556c0.18 0.169 0.429 0.404 0.555 0.523 0.712 0.673 0.903 0.854 1.453 1.369 0.332 0.312 0.734 0.692 0.893 0.845l0.289 0.279-0.142 0.132c-0.141 0.131-0.278 0.25-0.811 0.705-0.445 0.38-0.654 0.559-0.832 0.716-0.092 0.081-0.343 0.296-0.557 0.478s-0.43 0.368-0.478 0.414c-0.049 0.045-0.116 0.102-0.151 0.126s-0.163 0.134-0.287 0.244c-0.124 0.11-0.394 0.345-0.6 0.522s-0.412 0.353-0.457 0.392c-0.525 0.454-0.889 0.766-1.192 1.024-0.201 0.171-0.518 0.443-0.705 0.605s-0.663 0.573-1.058 0.913-0.726 0.626-0.735 0.636c-0.009 0.010-0.097 0.084-0.196 0.165s-0.231 0.193-0.294 0.249-0.162 0.142-0.22 0.191l-0.106 0.088v-15.92l0.106 0.096c0.058 0.053 0.216 0.2 0.351 0.327zM29.257 16.082c0 4.373-0.008 7.951-0.017 7.951s-0.197-0.158-0.417-0.351c-0.22-0.193-0.481-0.419-0.579-0.502-0.163-0.138-1.166-0.999-2.693-2.31-0.323-0.278-0.648-0.557-0.72-0.622s-0.263-0.227-0.422-0.362c-0.159-0.135-0.365-0.311-0.457-0.392-0.186-0.162-0.26-0.226-0.572-0.49-0.117-0.099-0.22-0.187-0.229-0.197s-0.112-0.098-0.229-0.196c-0.117-0.098-0.22-0.186-0.229-0.196-0.022-0.023-0.684-0.595-0.778-0.672-0.042-0.034-0.122-0.104-0.18-0.156s-0.193-0.169-0.302-0.261c-0.109-0.092-0.385-0.329-0.614-0.526l-0.416-0.359 0.189-0.18c0.104-0.099 0.586-0.553 1.071-1.009s0.977-0.92 1.094-1.030c0.117-0.11 0.366-0.346 0.555-0.524 0.928-0.873 1.355-1.277 1.714-1.618 0.252-0.24 1.243-1.172 1.748-1.646 0.136-0.127 0.496-0.467 0.8-0.755s0.64-0.604 0.747-0.702 0.349-0.328 0.539-0.512c0.19-0.184 0.357-0.334 0.37-0.335s0.024 3.577 0.024 7.95zM13.061 17.745c0.117 0.109 0.359 0.338 0.539 0.508 1.418 1.343 1.386 1.315 1.651 1.46 0.109 0.060 0.243 0.105 0.503 0.171 0.461 0.117 1.087-0.091 1.535-0.51 0.126-0.118 0.687-0.646 1.248-1.174s1.038-0.96 1.061-0.96c0.023 0 0.147 0.092 0.274 0.204s0.361 0.314 0.52 0.449c0.158 0.135 0.364 0.311 0.457 0.392s0.299 0.257 0.458 0.392c0.159 0.135 0.356 0.305 0.438 0.379s0.191 0.169 0.243 0.212c0.125 0.104 0.626 0.533 0.772 0.662 0.063 0.056 0.21 0.182 0.327 0.281s0.218 0.186 0.228 0.196c0.009 0.009 0.112 0.098 0.228 0.197 0.326 0.276 0.394 0.334 0.524 0.449 0.066 0.058 0.51 0.44 0.986 0.849s1.379 1.184 2.006 1.723l1.14 0.98-6.065 0.008c-3.336 0.005-8.806 0.005-12.157 0l-6.092-0.008 0.367-0.316c0.202-0.174 0.507-0.436 0.677-0.582s0.347-0.299 0.392-0.338c0.045-0.039 0.39-0.335 0.767-0.658s0.693-0.595 0.702-0.604 0.112-0.098 0.229-0.196c0.117-0.099 0.22-0.187 0.229-0.197s0.112-0.098 0.229-0.196c0.117-0.098 0.22-0.187 0.229-0.197 0.018-0.020 0.755-0.653 0.882-0.758 0.045-0.037 0.149-0.127 0.23-0.201s0.288-0.251 0.457-0.394c0.17-0.143 0.316-0.269 0.325-0.278s0.112-0.098 0.229-0.196 0.279-0.237 0.361-0.309c0.082-0.072 0.279-0.241 0.439-0.376s0.38-0.326 0.49-0.424c0.229-0.205 0.912-0.792 1.187-1.018l0.185-0.152 0.18 0.166c0.099 0.091 0.275 0.256 0.392 0.365z"></path>
</svg>
