<!-- Generated by IcoMoon.io -->
<svg version="1.1" xmlns="http://www.w3.org/2000/svg" width="32" height="32" viewBox="0 0 32 32">
<title>4</title>
<path fill="#829984" d="M28.16 3.817c-0.088 0.016-0.261 0.060-0.384 0.097-0.6 0.179-24.934 10.651-25.173 10.833-1.052 0.802-0.878 2.232 0.347 2.857 0.142 0.073 1.558 0.577 3.145 1.121s2.899 1.001 2.914 1.016c0.015 0.015 0.499 1.592 1.076 3.504 1.362 4.517 1.483 4.799 2.127 4.978 0.748 0.208 0.921 0.102 2.978-1.813l1.751-1.63 2.847 2.219c3.093 2.41 3.035 2.373 3.828 2.422 0.928 0.057 1.676-0.357 2.074-1.15 0.268-0.534 4.409-22.215 4.373-22.893-0.058-1.072-0.884-1.749-1.903-1.559zM28.72 5.472c0.033 0.514-4.179 22.168-4.348 22.351-0.542 0.589-0.581 0.568-3.93-2.045-1.581-1.234-3.43-2.661-4.107-3.171s-1.231-0.945-1.23-0.967c0.001-0.022 2.362-2.816 5.248-6.21l5.246-6.17v-0.302c0-0.414-0.218-0.639-0.617-0.639-0.264 0-0.71 0.287-7.863 5.056-4.171 2.781-7.608 5.056-7.638 5.056-0.576 0-6.159-2.141-6.205-2.38-0.038-0.197 1.897-1.043 22.163-9.695 3.12-1.332 3.25-1.367 3.28-0.885zM17.342 16.868c-2.118 2.491-3.862 4.56-3.877 4.598s-0.257 1.104-0.538 2.369-0.519 2.306-0.528 2.314c-0.009 0.008-0.468-1.487-1.021-3.322-0.73-2.424-0.984-3.35-0.928-3.383 0.042-0.025 2.467-1.642 5.389-3.592s5.321-3.539 5.332-3.529c0.011 0.010-1.712 2.055-3.83 4.546zM15.173 23.428c0.332 0.248 0.603 0.481 0.603 0.516 0 0.055-1.838 1.795-1.864 1.764s0.588-2.731 0.62-2.731c0.021 0 0.309 0.203 0.641 0.452z"></path>
</svg>
