<!-- Generated by IcoMoon.io -->
<svg version="1.1" xmlns="http://www.w3.org/2000/svg" width="32" height="32" viewBox="0 0 32 32">
<title>5</title>
<path fill="#829984" d="M11.44 5.264c-3.050 0.408-5.846 1.644-6.709 2.964-1.711 2.619-3.448 9.196-3.557 13.471l-0.023 0.92 0.246 0.369c1.152 1.732 3.837 3.179 6.843 3.687 1.341 0.227 1.185 0.308 2.279-1.177 0.449-0.61 0.841-1.118 0.87-1.129s0.282 0.027 0.562 0.084c1.299 0.266 3.444 0.466 4.329 0.403 0.099-0.007 0.459-0.023 0.8-0.035 0.969-0.035 2.255-0.201 3.22-0.417l0.32-0.071 0.24 0.323c0.132 0.178 0.51 0.689 0.838 1.136 0.842 1.146 0.748 1.105 2.061 0.883 3.006-0.509 5.691-1.955 6.843-3.687l0.246-0.369-0.024-0.92c-0.113-4.309-1.838-10.836-3.563-13.483-0.861-1.32-3.699-2.563-6.753-2.956-0.915-0.118-0.98-0.065-1.265 1.030-0.139 0.535-0.055 0.491-0.75 0.394-0.972-0.135-1.543-0.176-2.493-0.176s-1.521 0.040-2.493 0.176c-0.695 0.097-0.612 0.141-0.75-0.394-0.286-1.101-0.356-1.155-1.317-1.026zM11.857 6.47c0.16 0.48 0.169 0.462-0.296 0.566-1.668 0.372-4.3 1.506-4.508 1.942-0.225 0.472 0.281 0.788 0.782 0.487 2.138-1.284 5.17-2.043 8.165-2.043 2.992 0 6.040 0.762 8.165 2.042 0.513 0.309 1.023-0.024 0.774-0.505-0.228-0.441-2.811-1.534-4.59-1.943-0.364-0.084-0.362-0.079-0.207-0.545l0.103-0.309 0.187 0.022c2.671 0.321 5.366 1.448 6.072 2.539 1.632 2.521 3.28 8.738 3.403 12.843l0.024 0.787-0.185 0.259c-0.966 1.354-2.999 2.482-5.447 3.024-0.523 0.116-1.37 0.246-1.424 0.219-0.026-0.013-1.28-1.717-1.29-1.753-0.004-0.013 0.259-0.113 0.582-0.223 1.391-0.472 2.999-1.311 3.592-1.876 0.466-0.443-0.091-1.043-0.601-0.647-3.39 2.635-10.083 3.38-15.040 1.674-1.238-0.426-2.975-1.319-3.273-1.682-0.248-0.302-0.767-0.084-0.767 0.323 0 0.472 1.852 1.564 3.74 2.204 0.308 0.104 0.564 0.207 0.568 0.227 0.008 0.036-1.208 1.723-1.262 1.751-0.050 0.026-0.868-0.095-1.346-0.198-2.506-0.542-4.557-1.682-5.56-3.088l-0.152-0.213 0.025-0.807c0.135-4.367 2.153-11.601 3.679-13.19 0.885-0.921 3.656-1.945 5.935-2.192 0.026-0.003 0.093 0.135 0.15 0.305zM5.58 11.041c-0.043 0.084-0.053 0.142-0.027 0.167s0.056-0.012 0.087-0.107c0.062-0.189 0.025-0.226-0.060-0.060zM5.055 12.672c-0.108 0.070-0.177 0.337-0.1 0.384 0.031 0.019 0.183-0.373 0.155-0.4-0.006-0.006-0.031 0.001-0.055 0.016zM10.96 14.262c-1.776 0.381-2.692 2.573-1.797 4.298 1.040 2.003 3.697 1.969 4.699-0.060 1.076-2.177-0.665-4.718-2.902-4.238zM19.96 14.262c-2.017 0.433-2.841 3.171-1.452 4.827 1.251 1.492 3.475 1.191 4.354-0.589 1.075-2.177-0.665-4.718-2.902-4.238zM12.216 15.275c1.408 0.693 1.431 2.974 0.037 3.678-1.777 0.897-3.359-1.513-2.087-3.18 0.474-0.622 1.361-0.837 2.049-0.498zM21.216 15.275c1.404 0.691 1.429 2.977 0.040 3.676-1.777 0.895-3.353-1.49-2.097-3.173 0.463-0.621 1.368-0.842 2.057-0.503z"></path>
</svg>
