<!-- Generated by IcoMoon.io -->
<svg version="1.1" xmlns="http://www.w3.org/2000/svg" width="30" height="32" viewBox="0 0 30 32">
<title>66</title>
<path fill="#829984" d="M14.277 1.509c-4.263 0.403-7.732 2.215-10.276 5.367-5.868 7.27-3.484 18.050 4.906 22.185 8.474 4.176 18.65-0.881 20.549-10.212 1.679-8.252-4.156-16.273-12.567-17.274-0.441-0.052-2.267-0.099-2.612-0.066zM15.927 4.987c4.068 0.156 8.019 3.031 9.552 6.95 3.27 8.358-4.197 16.935-12.886 14.799-4.556-1.12-8.075-5.302-8.331-9.901-0.012-0.21-0.029-0.492-0.038-0.628-0.159-2.385 0.955-5.413 2.752-7.48 2.052-2.36 5.589-3.959 8.333-3.767 0.070 0.005 0.347 0.017 0.617 0.028z"></path>
</svg>
